<svg width="18" height="18" viewBox="0 0 18 18" fill="none" xmlns="http://www.w3.org/2000/svg">
<g clip-path="url(#clip0_10_795)">
<path d="M8.79998 12.16L7.56998 13.38C7.19568 13.7495 6.69092 13.9567 6.16498 13.9567C5.63905 13.9567 5.13428 13.7495 4.75998 13.38C4.57751 13.198 4.43274 12.9817 4.33396 12.7436C4.23518 12.5055 4.18434 12.2503 4.18434 11.9925C4.18434 11.7348 4.23518 11.4795 4.33396 11.2415C4.43274 11.0034 4.57751 10.7871 4.75998 10.605L7.10498 8.28004C7.47928 7.91057 7.98405 7.7034 8.50998 7.7034C9.03592 7.7034 9.54068 7.91057 9.91498 8.28004C10.1532 8.51669 10.3255 8.81139 10.415 9.13504C10.4642 9.09445 10.5094 9.04924 10.55 9.00004L11.195 8.36004C11.0506 8.05943 10.8561 7.78553 10.62 7.55004C10.0583 6.99432 9.3001 6.68262 8.50998 6.68262C7.71986 6.68262 6.96165 6.99432 6.39998 7.55004L4.04998 9.89504C3.77318 10.1697 3.55349 10.4965 3.40356 10.8565C3.25364 11.2165 3.17645 11.6026 3.17645 11.9925C3.17645 12.3825 3.25364 12.7686 3.40356 13.1286C3.55349 13.4886 3.77318 13.8154 4.04998 14.09C4.61165 14.6458 5.36986 14.9575 6.15998 14.9575C6.9501 14.9575 7.70832 14.6458 8.26998 14.09L10.095 12.28H9.84498C9.49289 12.2862 9.14151 12.2459 8.79998 12.16Z" fill="#929493"/>
<path d="M14.305 3.9099C13.7434 3.35418 12.9851 3.04248 12.195 3.04248C11.4049 3.04248 10.6467 3.35418 10.085 3.9099L8.26003 5.7199H8.50503C8.85969 5.71981 9.21278 5.76689 9.55503 5.8599L10.785 4.6399C11.1593 4.27043 11.6641 4.06327 12.19 4.06327C12.716 4.06327 13.2207 4.27043 13.595 4.6399C13.7775 4.82196 13.9223 5.03823 14.0211 5.27631C14.1198 5.5144 14.1707 5.76964 14.1707 6.0274C14.1707 6.28516 14.1198 6.5404 14.0211 6.77849C13.9223 7.01657 13.7775 7.23284 13.595 7.4149L11.25 9.7399C10.8757 10.1094 10.371 10.3165 9.84503 10.3165C9.3191 10.3165 8.81433 10.1094 8.44003 9.7399C8.20182 9.50325 8.02948 9.20854 7.94003 8.8849C7.88998 8.91892 7.84312 8.95741 7.80003 8.9999L7.15503 9.6399C7.29945 9.94051 7.49388 10.2144 7.73003 10.4499C8.29169 11.0056 9.04991 11.3173 9.84003 11.3173C10.6301 11.3173 11.3884 11.0056 11.95 10.4499L14.295 8.1249C14.5712 7.84988 14.7904 7.52301 14.9399 7.16306C15.0895 6.80311 15.1665 6.41718 15.1665 6.0274C15.1665 5.63762 15.0895 5.25169 14.9399 4.89174C14.7904 4.53179 14.5712 4.20492 14.295 3.9299L14.305 3.9099Z" fill="#929493"/>
</g>
<defs>
<clipPath id="clip0_10_795">
<rect width="18" height="18" fill="white"/>
</clipPath>
</defs>
</svg>
