<svg width="14" height="14" viewBox="0 0 14 14" fill="none" xmlns="http://www.w3.org/2000/svg">
<path d="M5.07908 11.4958L10.5 6.07486L7.92517 3.50003L2.50425 8.92095C2.42962 8.99567 2.37661 9.0892 2.35083 9.19161L1.75 12.25L4.80783 11.6492C4.9105 11.6235 5.00442 11.5704 5.07908 11.4958ZM12.25 4.32486C12.4687 4.10608 12.5916 3.80939 12.5916 3.50003C12.5916 3.19067 12.4687 2.89398 12.25 2.6752L11.3248 1.75003C11.1061 1.53132 10.8094 1.40845 10.5 1.40845C10.1906 1.40845 9.89395 1.53132 9.67517 1.75003L8.75 2.6752L11.3248 5.25003L12.25 4.32486Z" fill="white"/>
</svg>
