<svg width="23" height="23" viewBox="0 0 23 23" fill="none" xmlns="http://www.w3.org/2000/svg">
<path d="M11.5 20.1249C10.2896 19.0925 9.16762 17.9606 8.14585 16.7411C6.61252 14.9097 4.79169 12.1823 4.79169 9.58328C4.79102 8.25595 5.18413 6.95826 5.92127 5.85443C6.6584 4.7506 7.70643 3.89026 8.93271 3.38229C10.159 2.87431 11.5084 2.74154 12.8102 3.00077C14.1119 3.26 15.3076 3.89958 16.2457 4.83857C16.8703 5.46039 17.3654 6.19992 17.7022 7.01435C18.0391 7.82877 18.2112 8.70193 18.2084 9.58328C18.2084 12.1823 16.3875 14.9097 14.8542 16.7411C13.8324 17.9606 12.7105 19.0925 11.5 20.1249ZM11.5 6.70828C10.7375 6.70828 10.0063 7.01118 9.46709 7.55035C8.92792 8.08951 8.62502 8.82078 8.62502 9.58328C8.62502 10.3458 8.92792 11.077 9.46709 11.6162C10.0063 12.1554 10.7375 12.4583 11.5 12.4583C12.2625 12.4583 12.9938 12.1554 13.533 11.6162C14.0721 11.077 14.375 10.3458 14.375 9.58328C14.375 8.82078 14.0721 8.08951 13.533 7.55035C12.9938 7.01118 12.2625 6.70828 11.5 6.70828Z" fill="#D7B56D"/>
</svg>
